<?xml version="1.0" encoding="UTF-8" standalone="no"?>
<!-- Created with Inkscape (http://www.inkscape.org/) -->

<svg
   width="210mm"
   height="297mm"
   viewBox="0 0 210 297"
   version="1.1"
   id="svg1"
   xml:space="preserve"
   inkscape:version="1.4.4 (dcaf3e7d9e, 2026-05-05)"
   sodipodi:docname="Raidler-Scribere-I.svg"
   inkscape:export-batch-name="Raidler-Scribere-I-"
   inkscape:export-batch-path="../Repository/hb9hcr-bota/font"
   xmlns:inkscape="http://www.inkscape.org/namespaces/inkscape"
   xmlns:sodipodi="http://sodipodi.sourceforge.net/DTD/sodipodi-0.dtd"
   xmlns="http://www.w3.org/2000/svg"
   xmlns:svg="http://www.w3.org/2000/svg"><sodipodi:namedview
     id="namedview1"
     pagecolor="#505050"
     bordercolor="#eeeeee"
     borderopacity="1"
     inkscape:showpageshadow="0"
     inkscape:pageopacity="0"
     inkscape:pagecheckerboard="0"
     inkscape:deskcolor="#505050"
     inkscape:document-units="mm"
     inkscape:zoom="0.98772738"
     inkscape:cx="1149.1025"
     inkscape:cy="514.31196"
     inkscape:window-width="1728"
     inkscape:window-height="995"
     inkscape:window-x="0"
     inkscape:window-y="0"
     inkscape:window-maximized="1"
     inkscape:current-layer="svg1"
     showgrid="false"><inkscape:page
       x="0"
       y="0"
       width="210"
       height="297"
       id="page1"
       margin="0"
       bleed="0" /><inkscape:page
       x="220"
       y="0"
       width="215.89999"
       height="279.40002"
       id="page2"
       margin="0"
       bleed="0" /></sodipodi:namedview><defs
     id="defs1" /><path
     d="m 348.77801,83.58675 c -0.17343,-0.143952 -1.02881,-1.442021 -1.31569,-1.996588 -0.21433,-0.414327 -0.27693,-0.622464 -0.43292,-1.4394 -0.0499,-0.26153 -0.0389,-0.280439 0.14883,-0.254 0.15976,0.02252 0.27237,0.172255 0.53084,0.705904 0.18043,0.372533 0.56251,0.982133 0.84905,1.354666 0.98177,1.276361 1.12033,1.671646 0.60089,1.714085 -0.1397,0.0114 -0.31115,-0.02669 -0.381,-0.08467 z"
     style="display:inline;fill:#000000;stroke-width:0.264583"
     id="path1-47"
     inkscape:label="Backslash"
     sodipodi:insensitive="true" /><path
     d="m 354.51952,85.951233 c -0.15718,-0.17 -0.18451,-0.322389 -0.21705,-1.210484 -0.033,-0.900465 -0.0777,-1.144 -0.39351,-2.141617 -0.32336,-1.021577 -0.37873,-1.456716 -0.18536,-1.456716 0.21274,0 0.84755,1.138359 1.14791,2.058468 0.2438,0.746861 0.40441,1.806268 0.36823,2.428865 -0.0261,0.44958 -0.0359,0.466534 -0.28373,0.490818 -0.181,0.01773 -0.30967,-0.03218 -0.43649,-0.169334 z"
     style="display:inline;fill:#000000;stroke-width:0.264583"
     id="path1-12"
     inkscape:label="Pipe"
     sodipodi:insensitive="true" /><path
     d="m 338.3461,86.970165 c -0.28675,-0.150244 -0.31639,-0.566153 -0.0505,-0.708454 0.27474,-0.147039 0.58699,0.09807 0.58699,0.46078 0,0.338307 -0.19325,0.427519 -0.53649,0.247674 z m 0.0252,-2.16861 c -0.34399,-0.272269 -0.67475,-2.692926 -0.39921,-2.921608 0.18248,-0.151448 0.55364,0.0079 0.65804,0.282461 0.0457,0.120285 0.0831,0.408945 0.0831,0.641467 0,0.367355 0.0804,1.079883 0.21134,1.873374 0.0342,0.206899 0.0127,0.232534 -0.19229,0.23014 -0.12689,-0.0016 -0.28935,-0.0491 -0.36103,-0.105834 z"
     style="display:inline;fill:#000000;stroke-width:0.264583"
     id="path1-80"
     inkscape:label="Exclamation"
     sodipodi:insensitive="true" /><path
     d="m 328.46796,86.730812 c -0.077,-0.05842 -0.17852,-0.210312 -0.22571,-0.337521 -0.0733,-0.197453 -0.0599,-0.245176 0.0916,-0.32621 0.12892,-0.069 0.23269,-0.06971 0.38001,-0.0026 0.21462,0.09779 0.42061,0.503222 0.30824,0.606687 -0.14233,0.131043 -0.42061,0.160989 -0.55411,0.05963 z m 0.0197,-1.654743 c -0.2445,-0.244505 -0.33506,-0.415658 -0.3806,-0.719323 -0.0607,-0.404445 -0.0457,-0.447212 0.61903,-1.774997 0.067,-0.133829 -0.21005,-0.05464 -0.50134,0.14329 -0.44789,0.304353 -0.92032,0.156845 -0.92032,-0.28735 0,-0.190688 0.0675,-0.260562 0.40217,-0.416206 0.47469,-0.220774 1.23832,-0.432147 1.56633,-0.433562 0.2999,-0.0013 0.5715,0.272198 0.5715,0.575477 0,0.130796 -0.13898,0.464171 -0.30885,0.740833 -0.72357,1.178436 -0.79731,1.58904 -0.3711,2.06642 0.28981,0.324609 0.26668,0.426265 -0.097,0.426265 -0.18683,0 -0.34832,-0.08936 -0.57981,-0.320847 z"
     style="display:inline;fill:#000000;stroke-width:0.264583"
     id="path1-110"
     inkscape:label="Question"
     sodipodi:insensitive="true" /><path
     d="m 318.09692,87.783751 c 0,-0.09588 -0.0299,-0.155827 -0.0665,-0.133215 -0.13522,0.08357 -0.0702,-0.347515 0.15911,-1.054026 0.33477,-1.031674 0.49744,-1.784662 0.53577,-2.480096 0.0408,-0.740563 0.10021,-0.90043 0.3332,-0.896972 0.57704,0.0086 0.69139,0.657858 0.36044,2.046682 -0.19033,0.798695 -0.4276,1.48903 -0.75064,2.183958 -0.22425,0.482433 -0.57136,0.685139 -0.57136,0.333669 z m 0.51415,-5.382752 c -0.19021,-0.241814 -0.20174,-0.287306 -0.12409,-0.489659 0.081,-0.211151 0.588,-0.17439 0.74814,0.05425 0.19302,0.275572 0.16246,0.481695 -0.0854,0.575924 -0.30866,0.117353 -0.34285,0.108434 -0.53867,-0.140512 z"
     style="display:inline;fill:#000000;stroke-width:0.264583"
     id="path1-46"
     inkscape:label="Semicolon"
     sodipodi:insensitive="true" /><path
     d="m 310.1804,85.83047 c -0.0527,-0.0984 -0.0711,-0.290968 -0.0411,-0.427937 0.0733,-0.33386 0.32388,-0.326917 0.64599,0.01791 0.33747,0.361267 0.29069,0.530656 -0.15554,0.563168 -0.28857,0.02103 -0.37128,-0.0071 -0.4494,-0.15313 z m -0.0622,-1.53796 c -0.45857,-0.124859 -0.49643,-0.689186 -0.0537,-0.800309 0.18518,-0.04648 0.26808,-0.01318 0.42696,0.171532 0.23576,0.27409 0.24687,0.404591 0.049,0.575464 -0.11133,0.09613 -0.21632,0.109389 -0.42226,0.05331 z"
     style="display:inline;fill:#000000;stroke-width:0.264583"
     id="path1-28"
     inkscape:label="Colon"
     sodipodi:insensitive="true" /><path
     d="m 303.47076,85.585974 c -0.20031,-0.152064 -0.18669,-0.294132 0.0635,-0.662329 0.11642,-0.171323 0.21167,-0.333325 0.21167,-0.360003 0,-0.02668 0.0953,-0.199408 0.21169,-0.383842 0.23383,-0.370424 0.86063,-1.893906 0.92481,-2.247847 0.0609,-0.335711 0.28446,-0.630787 0.47797,-0.630787 0.18996,0 0.58616,0.353885 0.58812,0.525317 0.002,0.151503 -0.57385,1.533112 -0.87459,2.099349 -0.49919,0.939885 -1.13995,1.780897 -1.35259,1.775307 -0.0563,-0.0016 -0.16909,-0.05331 -0.25058,-0.115165 z"
     style="display:inline;fill:#000000;stroke-width:0.264583"
     id="path1-06"
     inkscape:label="Slash"
     sodipodi:insensitive="true" /><path
     d="m 298.25808,82.008101 c -0.14067,-0.140679 -0.0469,-0.416431 0.17502,-0.514607 0.37232,-0.164722 1.53877,-0.433708 2.14839,-0.495422 0.50175,-0.0508 0.57987,-0.03781 0.74083,0.123156 0.18002,0.180015 0.23958,0.471749 0.11238,0.55037 -0.28492,0.176089 -3.04468,0.468432 -3.17662,0.336503 z"
     style="display:inline;fill:#000000;stroke-width:0.264583"
     id="path1-81"
     inkscape:label="Underline"
     sodipodi:insensitive="true" /><path
     d="m 287.3795,86.045092 c -0.54718,-0.21557 -0.78884,-0.558747 -0.51421,-0.73025 0.13434,-0.0839 0.2616,-0.07898 0.64985,0.02514 0.26553,0.0712 0.6314,0.139338 0.81304,0.151413 0.36523,0.02429 0.70899,0.36394 0.61533,0.608007 -0.0771,0.200832 -0.99753,0.168879 -1.56401,-0.05429 z"
     style="display:inline;fill:#000000;stroke-width:0.264583"
     id="path1-34"
     inkscape:label="Dash"
     sodipodi:insensitive="true" /><path
     d="m 270.55659,87.566499 c -0.23434,-0.234339 -0.216,-0.54261 0.0423,-0.71188 0.12281,-0.08047 0.21166,-0.100232 0.21166,-0.04708 0,0.05039 0.0351,0.06995 0.0779,0.04348 0.10464,-0.06467 0.43011,0.358823 0.43011,0.559657 0,0.09386 -0.0898,0.194149 -0.21718,0.242581 -0.30079,0.114361 -0.35182,0.106233 -0.54482,-0.08676 z"
     style="display:inline;fill:#000000;stroke-width:0.264583"
     id="path1-96"
     inkscape:label="Dot"
     sodipodi:insensitive="true" /><path
     d="m 278.35787,90.578346 c -0.0336,-0.152937 -0.007,-0.340421 0.0706,-0.489672 0.0688,-0.133019 0.18913,-0.526325 0.26742,-0.874014 0.28752,-1.276773 0.33993,-1.480958 0.40673,-1.584661 0.10173,-0.157909 0.5201,-0.127762 0.68006,0.049 0.17118,0.189145 0.17561,0.380158 0.0212,0.914942 -0.0654,0.226539 -0.18332,0.636281 -0.26205,0.910532 -0.0787,0.274254 -0.25708,0.683829 -0.39634,0.910166 -0.2067,0.335926 -0.29731,0.411525 -0.49323,0.411525 -0.1965,0 -0.24988,-0.04492 -0.29444,-0.247819 z"
     style="display:inline;fill:#000000;stroke-width:0.264583"
     id="path1-05"
     inkscape:label="Comma"
     sodipodi:insensitive="true" /><path
     d="m 321.10259,112.75798 c 0,-0.0448 -0.14703,-0.22582 -0.32674,-0.40217 -0.17971,-0.17635 -0.37021,-0.45016 -0.42334,-0.60844 -0.26358,-0.78541 0.0567,-2.30178 0.56841,-2.69113 0.0766,-0.0583 0.32031,-0.10724 0.54151,-0.10871 0.22119,-0.002 0.40508,-0.0313 0.40864,-0.0662 0.0205,-0.2008 0.31924,-1.19343 0.41053,-1.364 0.18648,-0.34846 0.76833,-0.0961 0.76833,0.33321 0,0.12877 -0.1143,0.55797 -0.254,0.95377 -0.29223,0.82794 -0.29807,0.88334 -0.12753,1.21034 0.15281,0.293 0.1647,0.94547 0.0257,1.40947 -0.12194,0.40699 -0.60868,0.90738 -0.88263,0.90738 -0.13271,0 -0.23915,0.0825 -0.32786,0.254 -0.12276,0.23739 -0.381,0.35429 -0.381,0.17248 z m 0.25008,-2.12425 c 0.22362,-0.82875 0.19915,-1.1188 -0.0532,-0.63056 -0.19306,0.37353 -0.3449,1.31233 -0.21224,1.31233 0.0448,0 0.16426,-0.3068 0.26544,-0.68177 z"
     style="display:inline;fill:#000000;stroke-width:0.264583"
     id="path1-856"
     inkscape:label="0"
     sodipodi:insensitive="true" /><path
     d="m 324.46594,112.69097 c -0.17716,-0.17717 -0.19337,-0.32296 -0.23499,-2.11364 -0.0257,-1.10382 -0.008,-1.65184 0.0544,-1.7145 0.14358,-0.14359 0.52528,-0.10838 0.68012,0.0627 0.15901,0.1757 0.17437,0.64943 0.0847,2.61058 -0.054,1.18027 -0.0581,1.19969 -0.25847,1.23801 -0.11279,0.0216 -0.25807,-0.0155 -0.32571,-0.0832 z"
     style="display:inline;fill:#000000;stroke-width:0.264583"
     id="path1-84"
     inkscape:label="1"
     sodipodi:insensitive="true" /><path
     d="m 294.04886,74.465964 c -0.0218,-0.02133 -0.192,-0.04918 -0.37827,-0.0619 -0.34915,-0.02384 -0.80433,-0.226206 -0.80433,-0.357574 0,-0.04093 0.16907,-0.594688 0.37572,-1.230577 0.49784,-1.531924 0.52451,-1.78176 0.15344,-1.437487 -0.32256,0.299276 -0.58837,0.349123 -0.78945,0.148043 -0.0897,-0.08968 -0.16305,-0.214636 -0.16305,-0.277686 0,-0.176662 0.37412,-0.539763 0.76729,-0.744693 0.48082,-0.250616 0.79862,-0.237959 1.07934,0.04299 0.31271,0.312952 0.28767,0.801492 -0.10245,1.998536 -0.16767,0.514453 -0.30484,0.997241 -0.30484,1.072861 0,0.119756 0.0792,0.129741 0.61383,0.07743 0.33761,-0.03304 0.67098,-0.109328 0.74083,-0.169539 0.10138,-0.08739 0.18679,-0.08885 0.42334,-0.0072 0.31985,0.110334 0.43171,0.37102 0.23076,0.537792 -0.18894,0.156813 -1.74653,0.50269 -1.84216,0.40907 z"
     style="display:inline;fill:#000000;stroke-width:0.264583"
     id="path1-04"
     inkscape:label="2"
     sodipodi:insensitive="true" /><path
     d="m 307.23664,75.268441 c -0.22083,-0.08093 -0.32288,-0.280639 -0.32514,-0.636299 -10e-4,-0.192014 0.21276,-0.33291 0.29746,-0.195861 0.0832,0.134676 0.34261,0.09141 0.58232,-0.09715 l 0.22643,-0.178115 -0.20217,-0.266385 c -0.1112,-0.14651 -0.24683,-0.402661 -0.30141,-0.569219 -0.0856,-0.261276 -0.0751,-0.354232 0.0767,-0.677334 0.0968,-0.205975 0.2545,-0.500118 0.35052,-0.653653 0.21358,-0.341537 0.14954,-0.426548 -0.20874,-0.2771 -0.48455,0.202115 -0.88059,0.213352 -0.97989,0.0278 -0.1581,-0.295404 -0.0234,-0.505788 0.44096,-0.688821 0.92024,-0.362712 1.62168,-0.314092 1.82235,0.126317 0.15187,0.33333 0.12045,0.453382 -0.32788,1.252673 -0.23273,0.414909 -0.42314,0.798726 -0.42314,0.852929 0,0.0542 0.13335,0.28611 0.29633,0.51535 0.16299,0.22924 0.29634,0.495173 0.29634,0.59096 0,0.223536 -0.45992,0.669089 -0.86512,0.838089 -0.35485,0.148005 -0.43893,0.15199 -0.75592,0.03582 z"
     style="display:inline;fill:#000000;stroke-width:0.264583"
     id="path1-63"
     inkscape:label="3"
     sodipodi:insensitive="true" /><path
     d="m 322.41864,75.501499 c -0.0818,-0.17627 -0.28198,-0.984356 -0.41174,-1.662104 l -0.0548,-0.286269 -0.5035,0.05263 c -1.05333,0.110096 -1.32595,-0.246208 -1.21709,-1.590699 0.10351,-1.278533 0.10946,-1.318321 0.21669,-1.44752 0.14589,-0.175791 0.4526,-0.15513 0.63149,0.04254 0.14078,0.155562 0.14374,0.232614 0.0419,1.088967 -0.137,1.152038 -0.11595,1.219086 0.35986,1.146188 0.19909,-0.0305 0.37055,-0.0619 0.38103,-0.06978 0.0105,-0.0079 -0.0245,-0.248195 -0.0776,-0.534046 -0.0767,-0.412543 -0.0742,-0.546843 0.0125,-0.651229 0.26702,-0.321744 0.72037,0.02066 0.81556,0.61596 0.0674,0.421537 0.21953,0.607201 0.4975,0.607201 0.22291,0 0.3404,0.200792 0.18848,0.322114 -0.0554,0.04427 -0.19143,0.108331 -0.3022,0.142354 -0.19052,0.05852 -0.19834,0.08768 -0.14477,0.53953 0.0312,0.262718 0.0795,0.791993 0.1075,1.176168 l 0.0509,0.6985 h -0.25163 c -0.17831,0 -0.27739,-0.05551 -0.34003,-0.1905 z"
     style="display:inline;fill:#000000;stroke-width:0.264583"
     id="path1-62"
     inkscape:label="4"
     sodipodi:insensitive="true" /><path
     d="m 337.34801,72.850781 c -0.59875,-0.09827 -0.83711,-0.334185 -0.71772,-0.710348 0.0488,-0.153868 0.0991,-0.168389 0.40787,-0.117885 0.1937,0.03168 0.37123,0.058 0.39451,0.05851 0.41849,0.009 0.44103,-0.161861 0.0813,-0.616114 -0.20676,-0.261056 -0.33184,-0.336166 -0.63565,-0.381725 -0.46103,-0.06914 -0.71289,-0.336989 -0.92288,-0.98148 -0.0811,-0.249052 -0.18651,-0.500255 -0.23415,-0.558231 -0.14068,-0.171222 0.14543,-0.529706 0.42221,-0.529005 0.12698,2.65e-4 0.58846,-0.08176 1.0255,-0.182417 0.77368,-0.178178 0.80213,-0.178959 1.0795,-0.02959 0.19996,0.107686 0.28488,0.213162 0.28488,0.353846 0,0.251087 -0.18622,0.326044 -1.14228,0.45979 l -0.72797,0.101839 0.0561,0.261805 c 0.0763,0.356259 0.0697,0.349123 0.52347,0.567354 0.44561,0.21432 1.19956,0.946943 1.39963,1.360029 0.1776,0.366713 0.0782,0.583909 -0.36941,0.807432 -0.36915,0.184327 -0.50747,0.204695 -0.92485,0.136189 z"
     style="display:inline;fill:#000000;stroke-width:0.264583"
     id="path1-74"
     inkscape:label="5"
     sodipodi:insensitive="true" /><path
     d="m 356.03814,75.087825 c -0.47903,-0.208769 -0.5087,-0.3043 -0.50018,-1.610172 0.007,-1.126863 0.024,-1.240753 0.29739,-2.040154 0.24555,-0.717865 0.31949,-0.850922 0.48603,-0.874636 0.23144,-0.03296 0.52113,0.200689 0.52113,0.420309 0,0.08494 -0.0953,0.438174 -0.21167,0.784971 -0.11642,0.3468 -0.21167,0.687549 -0.21167,0.757216 0,0.07022 0.13499,0.171226 0.30289,0.226635 0.74485,0.245827 0.94516,1.572016 0.33661,2.228654 -0.23446,0.252986 -0.59829,0.291198 -1.02053,0.107177 z m 0.58418,-1.001569 c 0.0419,-0.165944 0.0523,-0.36394 0.0231,-0.439989 -0.0447,-0.116393 -0.0802,-0.121349 -0.22432,-0.03132 -0.12027,0.07511 -0.17125,0.197506 -0.17125,0.411139 0,0.522113 0.24587,0.561829 0.37248,0.06017 z"
     style="display:inline;fill:#000000;stroke-width:0.264583"
     id="path1-75"
     inkscape:label="6"
     sodipodi:insensitive="true" /><path
     d="m 365.48276,72.662355 c -0.10221,-0.155987 -0.10846,-0.252626 -0.0324,-0.500546 0.11899,-0.387707 0.0458,-0.606603 -0.17896,-0.535263 -0.0911,0.02891 -0.31149,0.01326 -0.48981,-0.03475 -0.25358,-0.06828 -0.32791,-0.131847 -0.34114,-0.291753 -0.0225,-0.27251 0.14113,-0.392509 0.63099,-0.462582 l 0.40704,-0.05822 v -0.422285 -0.422289 l -0.42333,-0.02318 c -0.63773,-0.03493 -1.28695,-0.18288 -1.39995,-0.319035 -0.12366,-0.148997 -0.0439,-0.510699 0.12714,-0.57632 0.0691,-0.02652 0.26942,0.01185 0.44513,0.08526 0.24793,0.103594 0.47434,0.120914 1.01118,0.07736 0.95376,-0.07739 1.01281,-0.01114 1.07733,1.208579 0.0263,0.496105 0.0709,1.116635 0.0992,1.37895 0.0441,0.408784 0.0232,0.520555 -0.14628,0.782119 -0.23955,0.369663 -0.58576,0.419849 -0.78618,0.113964 z"
     style="display:inline;fill:#000000;stroke-width:0.264583"
     id="path1-18"
     inkscape:label="7"
     sodipodi:insensitive="true" /><path
     d="m 344.4921,65.850738 c -0.21427,-0.05075 -0.39695,-0.155168 -0.45225,-0.258485 -0.11832,-0.221081 -0.0319,-0.694478 0.20357,-1.115153 l 0.18172,-0.324649 -0.39094,-0.369374 c -0.82185,-0.776507 -0.93835,-1.121021 -0.51611,-1.526281 0.47132,-0.452371 1.22341,-0.600384 1.62422,-0.319645 0.19173,0.134291 0.20867,0.132087 0.35278,-0.04588 l 0.15139,-0.186946 0.21639,0.188147 c 0.11901,0.103482 0.21639,0.231966 0.21639,0.285523 0,0.05355 -0.17145,0.529394 -0.381,1.057423 -0.20955,0.528029 -0.381,1.004488 -0.381,1.058796 0,0.05431 0.13054,0.266925 0.2901,0.472475 0.37978,0.489243 0.44636,0.759637 0.2343,0.951547 -0.2004,0.181361 -0.86698,0.246809 -1.34956,0.132504 z m 0.65582,-0.705324 c 0,-0.08937 -0.16248,-0.12691 -0.21081,-0.04871 -0.0292,0.04733 0.006,0.08605 0.0788,0.08605 0.0726,0 0.132,-0.0168 0.132,-0.03733 z m -0.25572,-1.906625 c 0.0941,-0.184412 0.17106,-0.374912 0.17106,-0.423333 0,-0.04928 -0.18757,-0.08804 -0.42599,-0.08804 -0.55909,0 -0.63117,0.163928 -0.24153,0.549304 0.15758,0.155856 0.29527,0.286523 0.30596,0.29037 0.0107,0.0038 0.0964,-0.143889 0.1905,-0.328301 z"
     style="display:inline;fill:#000000;stroke-width:0.264583"
     id="path1-33"
     inkscape:label="8"
     sodipodi:insensitive="true" /><path
     d="m 354.34484,62.777766 c -0.10478,-0.04215 -0.19116,-0.106447 -0.19197,-0.142873 -7.9e-4,-0.03643 -0.0371,-0.409127 -0.0807,-0.828227 -0.0436,-0.4191 -0.10389,-1.0287 -0.13407,-1.354667 -0.0302,-0.325967 -0.0653,-0.60374 -0.078,-0.617273 -0.0127,-0.01355 -0.16098,0.05673 -0.32947,0.156136 -0.56417,0.33287 -1.40833,0.07321 -1.40833,-0.433189 0,-0.52243 0.50483,-1.196904 0.98631,-1.317747 0.23278,-0.05842 0.92567,0.174459 1.2142,0.408096 0.142,0.114985 0.20724,0.259104 0.21567,0.476414 0.007,0.17136 0.0545,0.463963 0.10637,0.65023 0.20422,0.733549 0.35065,3.005666 0.19371,3.005666 -0.0428,0 -0.12849,0.01667 -0.1905,0.03704 -0.062,0.02037 -0.19849,0.0026 -0.30326,-0.03961 z"
     style="display:inline;fill:#000000;stroke-width:0.264583"
     id="path1-88"
     inkscape:label="9"
     sodipodi:insensitive="true" /><path
     d="m 485.78116,568.86261 c -0.61446,-0.45244 -0.61433,-0.47016 0.0123,-1.64281 0.41965,-0.78534 0.64219,-1.84602 0.65936,-3.14263 0.0143,-1.07645 0.19609,-2.26962 0.40407,-2.6515 0.20798,-0.38187 0.52409,-1.72333 0.70246,-2.98102 0.27532,-1.94129 0.24886,-2.36218 -0.1752,-2.78624 -0.45269,-0.45268 -0.43786,-0.56514 0.15817,-1.19959 0.36173,-0.38504 0.65769,-0.914 0.65769,-1.17545 0,-1.27492 1.69015,-1.64321 2.79921,-0.60997 0.55785,0.51972 0.6301,0.80703 0.40252,1.60057 -0.20929,0.72974 -0.0804,1.57577 0.52515,3.44658 1.0664,3.29469 1.39007,3.93442 2.44715,4.83678 1.24671,1.06422 2.13465,2.95096 2.22738,4.73286 0.0759,1.45766 0.0418,1.521 -0.9807,1.82181 -1.29834,0.38197 -1.87442,-0.0997 -3.20961,-2.68363 -0.76334,-1.47724 -1.0404,-1.74838 -1.78656,-1.74838 -0.77977,0 -0.97399,0.22471 -1.65955,1.92 -1.05578,2.61078 -1.89807,3.20936 -3.18383,2.26262 z"
     style="display:inline;fill:#000000"
     id="path1"
     inkscape:label="A"
     sodipodi:insensitive="true"
     transform="matrix(0.26458333,0,0,0.26458333,220.00001,0)" /><path
     d="m 561.88,595.63567 c -0.264,-0.0749 -0.79737,-0.62338 -1.18527,-1.21894 -0.91613,-1.40656 -0.45146,-1.92453 1.25629,-1.40041 1.48756,0.45655 1.95555,0.25246 2.98367,-1.30113 1.19192,-1.80111 0.89439,-2.6743 -1.62026,-4.7552 -1.11661,-0.924 -2.10584,-1.68 -2.19829,-1.68 -0.0925,0 -0.21041,1.04259 -0.26212,2.31686 -0.0895,2.20541 -0.1389,2.33831 -1.02698,2.76285 -0.83847,0.40081 -0.97622,0.38683 -1.36,-0.13803 -0.23487,-0.3212 -0.43219,-1.16848 -0.43848,-1.88284 -0.006,-0.71436 -0.29246,-2.81084 -0.63591,-4.65884 -0.34346,-1.848 -0.66231,-4.296 -0.70856,-5.44 -0.0937,-2.31729 -0.36108,-2.10945 2.47591,-1.92437 0.528,0.0344 1.608,-0.1101 2.4,-0.32121 1.24521,-0.33193 1.62272,-0.30455 2.79079,0.20237 2.31677,1.00542 2.54983,2.97593 0.67971,5.74692 -0.5195,0.76976 -1.08089,1.48383 -1.24753,1.58681 -0.58115,0.35917 -0.29579,1.31533 0.695,2.32873 0.54888,0.56141 1.16407,1.02075 1.36709,1.02075 0.20302,0 0.90593,0.44248 1.56203,0.9833 1.8655,1.5377 1.6592,3.26981 -0.69617,5.84527 -1.29565,1.41672 -3.51238,2.301 -4.83092,1.92711 z m 0.77359,-15.22294 c 0.71961,-1.44408 0.80354,-2.49274 0.1995,-2.49274 -0.13115,0 -0.72774,0.3287 -1.32577,0.73045 -0.9153,0.61488 -1.10317,0.94974 -1.18751,2.11661 -0.0551,0.76239 -0.0161,1.60529 0.0867,1.87311 0.27544,0.71776 1.24037,-0.24732 2.22711,-2.22743 z"
     style="display:inline;fill:#000000"
     id="path1-7"
     sodipodi:insensitive="true"
     inkscape:label="B"
     transform="matrix(0.26458333,0,0,0.26458333,220.00001,0)" /><path
     d="m 373.21677,568.14575 c -0.55697,-0.30237 -1.29322,-1.33867 -2.07524,-2.92097 l -1.21201,-2.45234 -0.005,-4.34622 c -0.004,-3.51585 0.11054,-4.63664 0.59871,-5.86623 0.52632,-1.32566 0.72225,-1.52 1.5324,-1.52 1.4454,0 3.47371,2.06247 3.52602,3.5854 0.0505,1.46882 -0.50165,2.1746 -1.70107,2.1746 -0.50645,0 -0.9392,0.108 -0.96166,0.24 -0.48648,2.85886 0.72404,8.70803 1.80084,8.70157 0.49196,-0.003 1.29382,-0.7034 1.71899,-1.50157 0.21094,-0.396 0.66646,-0.72 1.01227,-0.72 0.48675,0 0.62874,0.21912 0.62874,0.97028 0,1.71097 -0.80644,3.11697 -2.09712,3.65625 -1.43036,0.59764 -1.66391,0.59758 -2.76611,-7.7e-4 z"
     style="display:inline;fill:#000000"
     id="path1-0"
     inkscape:label="C"
     sodipodi:insensitive="true"
     transform="matrix(0.26458333,0,0,0.26458333,220.00001,0)" /><path
     d="m 307.2482,600.92957 c -0.66867,-0.78095 -0.64691,-0.81199 1.31685,-1.87814 1.67504,-0.90941 2.78453,-2.35015 3.30861,-4.29646 0.43321,-1.6088 0.16439,-3.80815 -0.5895,-4.82301 -1.07868,-1.4521 -4.04664,-2.33903 -4.43557,-1.32551 -0.0942,0.24555 -0.0251,1.00155 0.15363,1.68 0.17872,0.67845 0.42358,2.48669 0.54413,4.01832 l 0.21919,2.78478 -1.19314,0.56897 c -1.12654,0.53721 -1.21558,0.53827 -1.59527,0.019 -0.22117,-0.30247 -0.49639,-1.81166 -0.61161,-3.35375 -0.11521,-1.54209 -0.4119,-3.5238 -0.65931,-4.4038 -1.33294,-4.74104 -1.45054,-5.8233 -0.66549,-6.12455 0.85332,-0.32746 2.10884,0.20418 2.63106,1.11411 0.45103,0.78587 0.78481,0.92439 2.93852,1.21943 2.72965,0.37395 4.29903,1.21917 5.51013,2.96756 0.66335,0.95765 0.75942,1.46437 0.75835,4 -0.001,3.18668 -0.30068,4.036 -2.07669,5.89218 -0.92674,0.96858 -3.8367,2.6004 -4.65097,2.60814 -0.18089,0.002 -0.5872,-0.29856 -0.90292,-0.66729 z"
     style="display:inline;fill:#000000"
     id="path1-8"
     inkscape:label="D"
     sodipodi:insensitive="true"
     transform="matrix(0.26458333,0,0,0.26458333,220.00001,0)" /><path
     d="m 235.42381,597.99548 c -0.4101,-0.4425 -0.83392,-1.246 -0.94183,-1.78555 -0.24836,-1.24179 -1.17231,-3.23154 -1.69486,-3.6499 -0.21983,-0.176 -0.49625,-1.41968 -0.61426,-2.76374 -0.1923,-2.19016 -0.13771,-2.58048 0.52603,-3.76146 0.54323,-0.96654 1.03647,-1.3994 1.85082,-1.62426 0.61063,-0.1686 1.22061,-0.23833 1.35551,-0.15495 0.1349,0.0834 0.99813,0.29436 1.91829,0.46887 2.48686,0.47162 3.14452,1.26179 2.00152,2.40479 -0.40613,0.40613 -0.84543,0.48532 -1.82412,0.32882 -0.70904,-0.11338 -1.46999,-0.35622 -1.69102,-0.53965 -0.68688,-0.57007 -1.06989,0.0156 -1.06989,1.63603 v 1.55668 l 1.40761,-0.0545 c 0.99297,-0.0384 1.60643,0.12546 2.08259,0.55638 0.63239,0.57231 0.6414,0.64796 0.14279,1.19891 -0.2927,0.32343 -0.78023,0.58806 -1.0834,0.58806 -0.99278,0 -1.24565,0.69935 -0.72318,2 0.45963,1.1442 1.39751,1.61796 1.82707,0.92292 0.33006,-0.53405 1.78652,0.002 1.78652,0.65724 0,0.75966 -0.51053,1.29832 -2.05006,2.16302 -1.53789,0.86378 -2.30129,0.82861 -3.20613,-0.14773 z"
     style="display:inline;fill:#000000"
     id="path1-2"
     inkscape:label="E"
     sodipodi:insensitive="true"
     transform="matrix(0.26458333,0,0,0.26458333,220.00001,0)" /><path
     d="m 389.82053,599.15325 c -0.18129,-0.29333 -1.56308,-6.47339 -2.15243,-9.62676 -0.18025,-0.96445 -0.53275,-2.15002 -0.78333,-2.63459 -0.41496,-0.80244 -0.39698,-0.93966 0.20149,-1.53813 0.36139,-0.36139 0.79583,-0.57133 0.96541,-0.46653 0.16958,0.10481 0.30833,-0.0165 0.30833,-0.26951 0,-0.31055 1.02748,-0.74187 3.16134,-1.3271 3.01934,-0.82807 3.20712,-0.84335 4.18041,-0.34004 0.56049,0.28984 0.96232,0.69722 0.89297,0.90528 -0.24226,0.72677 -2.14758,1.55142 -4.28331,1.85387 -1.18395,0.16767 -2.19165,0.34387 -2.23933,0.39155 -0.0477,0.0477 -8.2e-4,0.41509 0.10415,0.81648 0.14384,0.55006 0.35744,0.6883 0.86731,0.56132 2.35484,-0.58643 3.26204,-0.5704 4.04468,0.0715 0.6371,0.52251 0.72448,0.75947 0.4473,1.21295 -0.37763,0.61779 -1.64066,1.05694 -3.25552,1.13193 -1.36041,0.0632 -1.3397,-0.20156 -0.40388,5.16282 0.36251,2.07803 0.57519,3.91403 0.47261,4.08 -0.23733,0.38402 -2.2926,0.3962 -2.5282,0.015 z"
     style="display:inline;fill:#000000"
     id="path1-22"
     inkscape:label="F"
     sodipodi:insensitive="true"
     transform="matrix(0.26458333,0,0,0.26458333,220.00001,0)" /><path
     d="m 456.35348,564.63999 c -0.0256,-0.396 -0.0143,-1.188 0.025,-1.76 0.0826,-1.20038 -0.42726,-1.36949 -0.9647,-0.32 -0.6611,1.29096 -1.63451,1.82533 -3.3388,1.83288 -2.1008,0.009 -3.55303,-0.79311 -4.95501,-2.73786 -1.07113,-1.48582 -1.12,-1.67277 -1.12,-4.28432 0,-2.35178 0.12608,-2.9876 0.90862,-4.58208 1.53518,-3.12802 3.3191,-3.77277 5.79337,-2.09384 1.87746,1.27397 2.40908,2.00215 1.86148,2.54975 -0.57079,0.57079 -2.22787,0.46118 -2.95334,-0.19536 -0.85704,-0.77561 -1.39214,-0.3089 -2.23805,1.95199 -1.16123,3.10367 -0.64403,5.67067 1.41424,7.01931 1.05593,0.69186 1.62187,0.25737 1.89576,-1.45542 0.29039,-1.81605 1.59458,-2.97342 3.13291,-2.78022 1.3581,0.17056 2.63248,1.01531 3.12313,2.07023 0.18803,0.40428 0.34188,1.6124 0.34188,2.68472 0,2.16854 -0.44377,2.79205 -2,2.81004 -0.68885,0.008 -0.8901,-0.14621 -0.92652,-0.70982 z"
     style="display:inline;fill:#000000"
     id="path1-6"
     inkscape:label="G"
     sodipodi:insensitive="true"
     transform="matrix(0.26458333,0,0,0.26458333,220.00001,0)" /><path
     d="m 511.32,577.41941 c -0.308,-0.0805 -0.56,-0.20874 -0.56,-0.28499 0,-0.46323 -0.97686,-6.52955 -1.10994,-6.89278 -0.089,-0.24291 -0.30133,-1.59365 -0.47185,-3.00165 -0.17052,-1.408 -0.36526,-2.776 -0.43274,-3.04 -0.77751,-3.04167 -0.61335,-4.16 0.61064,-4.16 1.54939,0 2.19713,1.14636 2.80629,4.96653 0.7652,4.79876 0.69459,4.63347 1.97916,4.63347 H 515.24 v -2.19225 c 0,-1.20574 -0.16242,-2.65817 -0.36094,-3.22763 -0.47291,-1.35661 0.15338,-2.12486 1.35867,-1.66661 1.42593,0.54214 1.65643,1.16931 1.93455,5.26386 0.14579,2.14645 0.35298,4.43875 0.4604,5.094 0.17322,1.05652 0.10324,1.23332 -0.61827,1.56207 -1.07915,0.49169 -1.79152,0.17448 -2.23264,-0.99417 -0.3009,-0.79719 -0.53947,-0.95927 -1.41193,-0.95927 H 513.32 v 2.36576 c 0,2.6934 -0.23748,2.99425 -2,2.53366 z"
     style="display:inline;fill:#000000"
     id="path1-1"
     inkscape:label="H"
     sodipodi:insensitive="true"
     transform="matrix(0.26458333,0,0,0.26458333,220.00001,0)" /><path
     d="m 529.04081,551.50603 c -0.0986,-0.15952 -0.24068,-0.92364 -0.31577,-1.69804 -0.32006,-3.30082 -0.95957,-6.90954 -1.3667,-7.71211 -0.64592,-1.27331 -0.537,-2.02821 0.35102,-2.43282 0.67319,-0.30672 0.92546,-0.24514 1.71412,0.41848 1.19124,1.00236 1.69371,3.28168 1.76409,8.00234 l 0.0524,3.51611 -1.00997,0.098 c -0.55548,0.0539 -1.09063,-0.0325 -1.18922,-0.19199 z"
     style="display:inline;fill:#000000"
     id="path1-4"
     inkscape:label="I"
     sodipodi:insensitive="true"
     transform="matrix(0.26458333,0,0,0.26458333,220.00001,0)" /><path
     d="m 446.63641,605.85101 c -1.48347,-0.3803 -6.07395,-3.93102 -5.08215,-3.93102 0.1902,0 0.27476,-0.27175 0.1879,-0.60389 -0.26316,-1.00634 0.37301,-1.0246 1.6999,-0.0488 0.69216,0.50902 1.669,1.02853 2.17075,1.15446 l 0.91227,0.22896 -0.2264,-1.88536 c -0.34196,-2.84776 -1.1328,-6.12411 -1.55931,-6.46008 -0.20865,-0.16436 -1.51237,-0.52249 -2.89716,-0.79585 -2.66897,-0.52686 -2.89494,-0.64606 -3.21001,-1.69335 -0.14793,-0.49175 -0.001,-0.77019 0.56606,-1.07375 0.63562,-0.34017 1.06617,-0.32251 2.53301,0.10391 0.97198,0.28256 2.25997,0.51375 2.8622,0.51375 1.35406,0 2.17674,0.81667 3.22682,3.20323 0.97023,2.20509 1.49971,5.22219 1.49971,8.54566 0,2.40139 -0.0489,2.58958 -0.72,2.76942 -0.78432,0.21019 -1.05175,0.20647 -1.96359,-0.0273 z"
     style="display:inline;fill:#000000"
     id="path1-10"
     inkscape:label="J"
     sodipodi:insensitive="true"
     transform="matrix(0.26458333,0,0,0.26458333,220.00001,0)" /><path
     d="m 604.76439,521.76438 c -0.51557,-0.51557 -0.74946,-1.89548 -1.83688,-10.83693 -0.0905,-0.7439 -0.30017,-1.4364 -0.466,-1.53889 -0.49888,-0.30832 -0.34069,-1.29392 0.30086,-1.87452 1.18083,-1.06863 2.91763,0.15823 2.91763,2.06101 0,0.92952 0.37068,0.73674 1.45102,-0.75461 1.13137,-1.5618 2.2126,-1.84908 3.37385,-0.89643 0.84169,0.69048 0.84917,0.66431 -0.77371,2.70769 -0.49987,0.62938 -0.98306,1.6976 -1.07375,2.37381 l -0.16491,1.22948 2.67375,1.7425 c 3.64813,2.37751 4.47225,3.41099 3.26065,4.08903 -0.8057,0.4509 -1.92333,-0.009 -4.8325,-1.98724 -1.45507,-0.98961 -2.73513,-1.79929 -2.84457,-1.79929 -0.18282,0 0.005,2.15645 0.32088,3.68 0.34331,1.65693 -1.226,2.88471 -2.30632,1.80439 z"
     style="display:inline;fill:#000000"
     id="path1-61"
     inkscape:label="K"
     sodipodi:insensitive="true"
     transform="matrix(0.26458333,0,0,0.26458333,220.00001,0)" /><path
     d="m 562.72071,553.23265 c -0.55461,-0.66826 -1.59837,-11.85371 -1.18254,-12.67266 0.3866,-0.76138 1.70072,-0.70617 2.4547,0.10313 0.4922,0.52832 0.62391,1.1626 0.64788,3.12 0.0165,1.35128 0.12403,3.44186 0.23886,4.64573 0.23248,2.43743 -0.0105,2.31707 2.91681,1.44495 1.22657,-0.36543 1.43907,-0.34241 2.21982,0.24051 0.47488,0.35454 0.91492,0.79915 0.97787,0.98801 0.20698,0.62094 -0.8207,1.30131 -2.99788,1.98469 -2.61496,0.8208 -4.66814,0.87749 -5.27552,0.14564 z"
     style="display:inline;fill:#000000"
     id="path1-65"
     inkscape:label="L"
     sodipodi:insensitive="true"
     transform="matrix(0.26458333,0,0,0.26458333,220.00001,0)" /><path
     d="m 525.14838,597.26636 c -0.47843,-0.38786 -0.99986,-2.98407 -1.32284,-6.58637 -0.11836,-1.32 -0.41305,-3.54022 -0.65487,-4.93383 -0.46383,-2.67296 -0.29361,-3.38617 0.80817,-3.38617 0.80947,0 1.85545,1.12129 2.10473,2.25626 0.29126,1.3261 2.05769,4.14374 2.59779,4.14374 0.49263,0 2.24999,-2.93684 2.53567,-4.23753 0.3309,-1.50659 2.0616,-1.07881 3.04127,0.75173 0.85155,1.59112 2.14839,9.70103 1.66633,10.42043 -0.13807,0.20605 -0.63396,0.47074 -1.10198,0.5882 -1.09655,0.27522 -1.76882,-0.71442 -1.82281,-2.68331 -0.0211,-0.77026 -0.204,-1.95317 -0.40638,-2.62868 l -0.36798,-1.2282 -0.92216,0.77595 c -0.91397,0.76905 -2.39013,1.19297 -3.62332,1.04052 -0.352,-0.0435 -0.61703,0.0649 -0.58895,0.24089 0.0281,0.176 0.14677,1.49009 0.26377,2.92019 l 0.21271,2.60019 -0.99595,0.14618 c -0.54777,0.0804 -1.18821,-0.01 -1.4232,-0.20019 z"
     style="display:inline;fill:#000000"
     id="path1-45"
     inkscape:label="M"
     sodipodi:insensitive="true"
     transform="matrix(0.26458333,0,0,0.26458333,220.00001,0)" /><path
     d="m 609.98183,256.53812 c -0.18604,-0.66997 -0.33906,-1.63832 -0.34005,-2.15191 -9.8e-4,-0.51358 -0.15959,-1.83999 -0.35247,-2.94757 -0.33139,-1.90303 -0.42693,-2.05848 -1.73698,-2.82622 -0.76246,-0.44683 -1.69918,-0.81242 -2.08159,-0.81242 -0.66949,0 -0.68612,0.0802 -0.4479,2.16 0.26304,2.29664 0.24542,4.12594 -0.0443,4.59466 -0.30394,0.49179 -1.71258,0.31134 -2.32129,-0.29737 -0.48012,-0.48012 -0.59671,-1.19255 -0.66225,-4.04672 -0.0697,-3.03599 -0.15958,-3.52883 -0.72722,-3.98848 -0.55306,-0.44784 -0.61485,-0.74336 -0.42296,-2.02296 0.27897,-1.86031 0.82402,-2.3945 1.92933,-1.89089 0.43738,0.19928 0.9463,0.69388 1.13093,1.0991 0.1977,0.4339 1.14949,1.12249 2.31529,1.67505 3.39173,1.6076 3.08275,1.68586 2.9191,-0.73934 -0.0795,-1.17868 -0.22187,-2.5161 -0.31629,-2.97206 -0.4177,-2.01706 2.37581,-1.8864 3.03737,0.14207 0.18062,0.55382 0.41481,3.95894 0.52041,7.56694 0.1056,3.608 0.21608,6.992 0.2455,7.52 0.0494,0.88685 -0.0364,0.96748 -1.12646,1.05812 -1.12166,0.0933 -1.19666,0.038 -1.51821,-1.12 z"
     style="display:inline;fill:#000000"
     id="path1-44"
     inkscape:label="N"
     sodipodi:insensitive="true"
     transform="matrix(0.26458333,0,0,0.26458333,220.00001,0)" /><path
     d="m 178.63023,546.84271 c -0.22538,-0.10043 -0.77294,-0.89926 -1.2168,-1.77519 -1.01318,-1.9994 -1.06749,-4.41338 -0.16449,-7.3106 1.05882,-3.39716 3.24088,-5.68763 4.99823,-5.24657 0.81977,0.20575 3.49228,3.83183 4.30219,5.83724 0.55962,1.38566 0.51696,3.56683 -0.0925,4.73114 -0.54206,1.03551 -2.26471,2.74402 -3.30319,3.27608 -0.80799,0.41397 -3.93293,0.75103 -4.52342,0.4879 z m 3.94483,-3.65861 c 1.12636,-1.1539 1.26153,-1.46065 1.23379,-2.8 -0.0459,-2.21378 -0.85304,-3.90414 -1.8643,-3.90414 -0.55802,0 -0.94883,0.27234 -1.26279,0.88 -0.84589,1.63718 -1.22554,3.67975 -1.00783,5.42224 0.18468,1.47812 0.30424,1.69776 0.92415,1.69776 0.41058,0 1.24757,-0.54863 1.97698,-1.29586 z"
     style="display:inline;fill:#000000"
     id="path1-68"
     inkscape:label="O"
     sodipodi:insensitive="true"
     transform="matrix(0.26458333,0,0,0.26458333,220.00001,0)" /><path
     d="m 181.38768,263.02665 c -0.20949,-0.57933 -0.68379,-3.63148 -1.05402,-6.78256 -0.64578,-5.49649 -0.64985,-5.74624 -0.10018,-6.14817 0.31512,-0.23042 0.80471,-0.34539 1.08798,-0.25549 0.30661,0.0973 0.888,-0.22582 1.43666,-0.7985 1.20224,-1.25487 2.36549,-1.25532 3.79353,-0.001 1.27148,1.11637 1.58725,2.24143 1.09878,3.91481 -0.2735,0.93695 -0.63676,1.33464 -1.6807,1.84 -0.73249,0.35459 -1.59288,0.64471 -1.91199,0.64471 -0.50564,0 -0.55564,0.1953 -0.38911,1.52 0.1051,0.836 0.28716,2.63215 0.40459,3.99143 0.21342,2.47051 0.21318,2.47156 -0.65069,2.8 -1.34021,0.50955 -1.62523,0.40803 -2.03485,-0.72475 z"
     style="display:inline;fill:#000000"
     id="path1-49"
     inkscape:label="P"
     sodipodi:insensitive="true"
     transform="matrix(0.26458333,0,0,0.26458333,220.00001,0)" /><path
     d="m 220.37343,257.84384 -0.38412,-1.43616 -2.1128,0.19636 c -1.60779,0.14943 -2.3488,0.0743 -3.10014,-0.3142 -2.07746,-1.0743 -4.25637,-4.92146 -4.25637,-7.51519 0,-2.82798 1.85641,-6.5489 3.75791,-7.5322 0.48979,-0.25328 1.58066,-0.564 2.42416,-0.69049 1.33866,-0.20074 1.63307,-0.13657 2.31578,0.50481 0.43018,0.40413 0.78215,0.90258 0.78215,1.10765 0,0.45933 -1.37878,1.11558 -2.34385,1.11558 -1.03485,0 -2.05371,0.8239 -2.78043,2.2484 -0.64709,1.26839 -0.91007,2.52046 -0.34037,1.62054 0.57457,-0.90765 2.79827,0.6068 5.12601,3.49106 0.55179,0.68371 0.69505,0.73023 0.98553,0.32 0.18695,-0.264 0.29504,-1.41883 0.24021,-2.5663 -0.0787,-1.64744 -0.24982,-2.23642 -0.8134,-2.8 -0.82258,-0.82258 -0.90376,-1.30085 -0.26258,-1.5469 0.57207,-0.21952 2.06247,0.54769 2.95821,1.5228 1.52363,1.65862 1.54578,4.80524 0.054,7.66732 -0.60841,1.16726 -0.60806,1.18689 0.0403,2.25031 0.38695,0.63469 0.65452,1.62814 0.65522,2.43277 l 0.001,1.36 h -1.28123 c -1.24759,0 -1.29131,-0.0377 -1.66534,-1.43616 z m -2.5226,-3.65904 c 0.36386,-0.23034 0.20952,-0.63778 -0.8,-2.11198 -0.68796,-1.00462 -1.56944,-2.30216 -1.95885,-2.88341 -1.09259,-1.63086 -1.37198,-1.64051 -1.37198,-0.0474 0,3.34844 2.32459,6.18622 4.13083,5.04277 z"
     style="display:inline;fill:#000000"
     id="path1-9"
     inkscape:label="Q"
     sodipodi:insensitive="true"
     transform="matrix(0.26458333,0,0,0.26458333,220.00001,0)" /><path
     d="m 275.68334,257.08366 c -0.48199,-0.53259 -1.43997,-8.60443 -1.55755,-13.12369 -0.044,-1.69107 -0.0117,-1.76393 0.82566,-1.86043 0.54235,-0.0625 1.13405,0.14421 1.5668,0.54738 0.48184,0.44891 1.10506,0.63959 2.02979,0.62103 2.4502,-0.0492 3.50532,1.20831 3.01685,3.59547 -0.70335,3.43728 -0.70547,3.37096 0.15432,4.83807 1.0803,1.8434 2.03624,2.69765 3.32345,2.96994 1.81319,0.38355 2.11265,2.13721 0.4715,2.76117 -1.71909,0.6536 -5.31117,-2.15541 -6.89592,-5.39263 -0.36617,-0.748 -0.75275,-1.36 -0.85906,-1.36 -0.10631,0 -0.18562,1.54776 -0.17624,3.43947 0.0165,3.33421 -0.005,3.44058 -0.6933,3.47584 -0.3907,0.02 -0.93354,-0.21022 -1.2063,-0.51162 z m 2.52811,-10.27872 c 0.0172,-0.80707 -0.13056,-1.39545 -0.37145,-1.47922 -0.28992,-0.10081 -0.4,0.3702 -0.4,1.71158 0,1.40469 0.0895,1.76115 0.37145,1.47922 0.2043,-0.2043 0.3843,-0.97451 0.4,-1.71158 z"
     style="display:inline;fill:#000000"
     id="path1-95"
     inkscape:label="R"
     sodipodi:insensitive="true"
     transform="matrix(0.26458333,0,0,0.26458333,220.00001,0)" /><path
     d="m 319.64166,255.12785 c -1.40837,-0.41408 -2.13473,-1.58383 -1.89621,-3.0537 0.10295,-0.63439 0.25132,-1.21758 0.3297,-1.29597 0.29632,-0.29632 1.45601,0.70334 1.63272,1.40741 0.14806,0.58992 0.40347,0.73441 1.29823,0.73441 0.67899,0 1.11302,-0.15618 1.11165,-0.4 -10e-4,-0.22 -0.83437,-1.44453 -1.85141,-2.72118 -1.01704,-1.27665 -2.09356,-2.98058 -2.39226,-3.78651 -0.48351,-1.30458 -0.49173,-1.56466 -0.075,-2.37057 1.19042,-2.30202 4.1881,-3.04363 5.79747,-1.43426 1.16096,1.16096 0.89865,1.90554 -0.68389,1.94119 -1.63632,0.0369 -2.39268,0.37819 -2.39268,1.07977 0,0.50751 1.75462,3.05051 4.23093,6.13194 1.15892,1.44212 1.08059,2.42136 -0.26608,3.32651 -1.09985,0.73926 -3.1834,0.92896 -4.84319,0.44096 z"
     style="display:inline;fill:#000000"
     id="path1-17"
     inkscape:label="S"
     sodipodi:insensitive="true"
     transform="matrix(0.26458333,0,0,0.26458333,220.00001,0)" /><path
     d="m 357.5023,254.64 c -0.76131,-0.89398 -1.15729,-2.25037 -1.70488,-5.84 -0.80395,-5.27011 -0.5568,-4.8 -2.52352,-4.8 -2.47986,0 -3.66599,-0.30493 -3.88631,-0.99909 -0.32727,-1.03115 0.49647,-1.42208 3.18353,-1.51082 2.21778,-0.0732 4.52278,-0.43286 7.64522,-1.1928 0.68924,-0.16774 1.07741,-0.048 1.68,0.51806 1.50892,1.41756 0.76892,2.36254 -2.17634,2.77917 -0.82358,0.1165 -1.19941,0.33219 -1.19811,0.68761 0.004,1.16794 0.98565,6.9341 1.44136,8.46863 0.45244,1.52356 0.44805,1.67881 -0.058,2.04886 -0.7756,0.56713 -1.8445,0.49613 -2.40293,-0.15962 z"
     style="display:inline;fill:#000000"
     id="path1-610"
     inkscape:label="T"
     sodipodi:insensitive="true"
     transform="matrix(0.26458333,0,0,0.26458333,220.00001,0)" /><path
     d="m 388.0023,252.30649 c -2.08595,-1.75521 -3.00503,-4.48731 -3.39647,-10.09648 -0.1585,-2.27113 -0.10441,-2.82262 0.3106,-3.16705 0.38821,-0.32219 0.68381,-0.33446 1.29947,-0.0539 1.0124,0.46128 1.32102,1.3098 1.38936,3.81994 0.0993,3.64809 0.98431,7.11104 1.81728,7.11104 1.60147,0 4.57959,-7.31898 3.94446,-9.69384 -0.3429,-1.28215 0.32214,-2.45008 1.20844,-2.12221 1.21608,0.44985 1.70456,1.558 1.70456,3.86687 0,4.81592 -3.75466,11.14306 -6.61545,11.14798 -0.38249,6.6e-4 -1.13051,-0.36488 -1.66225,-0.81231 z"
     style="display:inline;fill:#000000"
     id="path1-490"
     inkscape:label="U"
     sodipodi:insensitive="true"
     transform="matrix(0.26458333,0,0,0.26458333,220.00001,0)" /><path
     d="m 430.15717,251.16375 c -0.45491,-0.18365 -0.95549,-1.00466 -1.49971,-2.45972 -1.77662,-4.75006 -3.35593,-8.93058 -3.56604,-9.43952 -0.15183,-0.36776 -3.3e-4,-0.65359 0.48372,-0.91264 1.37546,-0.73613 2.92308,1.19584 4.485,5.59884 0.96135,2.71003 1.10067,2.51255 2.81522,-3.99074 0.34801,-1.32 0.80541,-3.29111 1.01644,-4.38025 0.42811,-2.20947 0.92922,-2.63546 2.15523,-1.83215 0.74917,0.49087 0.78471,0.63972 0.59399,2.48726 -0.39346,3.81134 -2.1102,10.16795 -3.62034,13.40514 -0.89412,1.91667 -1.32383,2.14534 -2.86351,1.52378 z"
     style="display:inline;fill:#000000"
     id="path1-11"
     inkscape:label="V"
     sodipodi:insensitive="true"
     transform="matrix(0.26458333,0,0,0.26458333,220.00001,0)" /><path
     d="m 469.21897,253.56 c -0.45142,-0.484 -0.97716,-1.18481 -1.16831,-1.55736 -0.27436,-0.53474 -0.76776,-0.7249 -2.34342,-0.90317 -3.26494,-0.36938 -3.39473,-0.54064 -4.25887,-5.61947 -0.28448,-1.672 -0.75192,-3.71491 -1.03875,-4.5398 -0.59569,-1.71309 -0.26583,-2.5002 1.04777,-2.5002 1.15161,0 1.9248,1.45904 2.54366,4.8 0.30971,1.672 0.65832,3.54256 0.77469,4.15679 0.18348,0.9685 0.35848,1.14084 1.31792,1.29793 0.60849,0.0996 1.80989,0.5942 2.66978,1.09907 1.52336,0.89441 1.57499,0.90215 2.0139,0.30208 0.81811,-1.11854 0.8297,-2.05675 0.0711,-5.75539 l -0.75075,-3.6604 0.71115,-0.71115 c 0.39113,-0.39113 0.71115,-0.53515 0.71115,-0.32004 0,0.21511 0.15429,0.39111 0.34286,0.39111 0.73895,0 1.18885,0.94693 2.04645,4.30726 0.79887,3.13022 0.85327,3.66513 0.52009,5.1143 -0.20465,0.89014 -0.82942,2.37444 -1.38836,3.29844 -0.8754,1.44713 -1.15384,1.68 -2.00878,1.68 -0.67044,0 -1.25887,-0.28557 -1.81329,-0.88 z"
     style="display:inline;fill:#000000"
     id="path1-67"
     inkscape:label="W"
     sodipodi:insensitive="true"
     transform="matrix(0.26458333,0,0,0.26458333,220.00001,0)" /><path
     d="m 510.54859,239.87156 c -0.52382,-0.57881 -0.50314,-0.70994 0.42493,-2.69496 2.01995,-4.32039 2.03036,-5.31227 0.0781,-7.43417 -2.23817,-2.43258 -3.92707,-5.01234 -3.83013,-5.85043 0.15329,-1.32516 0.87939,-0.95198 3.95006,2.03012 2.71303,2.63479 3.3485,2.97299 3.3485,1.78212 0,-0.9155 1.24203,-2.26427 2.08508,-2.26427 0.82105,0 1.75492,1.06527 1.75492,2.00184 0,0.31869 -0.36,1.28986 -0.8,2.15816 -1.00698,1.98717 -1.00227,2.58807 0.0325,4.15172 1.81781,2.74689 1.94604,4.80828 0.2991,4.80828 -0.87862,0 -1.57026,-0.60244 -2.29036,-1.99495 l -0.50384,-0.97432 -0.5825,1.30107 c -1.55679,3.4772 -1.63542,3.5882 -2.54177,3.5882 -0.48066,0 -1.12171,-0.27378 -1.42454,-0.60841 z"
     style="display:inline;fill:#000000"
     id="path1-3"
     inkscape:label="X"
     sodipodi:insensitive="true"
     transform="matrix(0.26458333,0,0,0.26458333,220.00001,0)" /><path
     d="m 535.17665,257.86012 c -1.21966,-0.51484 -1.21441,-0.5759 0.34176,-3.98012 2.17208,-4.75152 2.21682,-4.93809 1.55473,-6.48269 -0.60865,-1.41991 -2.37799,-3.22433 -3.51575,-3.58544 -0.68755,-0.21822 -1.16958,-1.23437 -0.83916,-1.76901 0.50543,-0.81779 3.46914,-0.0555 4.96036,1.27588 0.59217,0.52869 1.17041,0.96126 1.28497,0.96126 0.26707,0 0.76124,-1.02427 1.46669,-3.04 0.30798,-0.88 0.70283,-1.78728 0.87746,-2.01618 0.52889,-0.69324 1.92257,-0.31813 2.3799,0.64055 0.37217,0.78018 0.2671,1.2477 -1.0787,4.8 -0.82006,2.1646 -2.33655,5.74535 -3.36997,7.95724 -1.03341,2.21188 -1.87894,4.16956 -1.87894,4.3504 0,0.18084 -0.252,0.55564 -0.56,0.83288 -0.49198,0.44286 -0.68916,0.44957 -1.62335,0.0552 z"
     style="display:inline;fill:#000000"
     id="path1-29"
     inkscape:label="Y"
     sodipodi:insensitive="true"
     transform="matrix(0.26458333,0,0,0.26458333,220.00001,0)" /><path
     d="m 558.07908,271.70603 c -0.7331,-0.34717 -0.75417,-0.4544 -0.57645,-2.93319 0.10146,-1.41506 0.27817,-2.88729 0.39269,-3.27163 0.18521,-0.62154 0.0748,-0.70998 -0.99881,-0.8 -0.99832,-0.0837 -1.25858,-0.25683 -1.50511,-1.00121 -0.16394,-0.495 -0.21663,-0.98144 -0.1171,-1.08097 0.0995,-0.0995 0.98837,-0.27053 1.9752,-0.38 l 1.79424,-0.19903 1.11048,-2.52099 c 0.61076,-1.38654 1.05706,-2.57439 0.99178,-2.63968 -0.0653,-0.0653 -1.35047,0.19974 -2.85598,0.58893 -3.28925,0.8503 -4.41002,0.59703 -4.41002,-0.99658 0,-1.01003 0.72485,-1.40545 3.2,-1.74564 1.22989,-0.16904 6.05093,-1.4303 6.47942,-1.69512 0.38485,-0.23785 1.21691,0.53038 1.56442,1.4444 0.29649,0.77983 -0.5235,3.41931 -1.55205,4.99588 -0.62426,0.95688 -0.50133,1.35089 0.48286,1.54773 1.09883,0.21977 1.95517,1.61007 1.46771,2.38286 -0.18045,0.28607 -1.10116,0.69424 -2.04603,0.90704 -0.94486,0.2128 -1.88865,0.62038 -2.0973,0.90573 -0.40238,0.55028 -0.89993,3.05121 -0.65563,3.29551 0.28508,0.28508 2.38511,-0.93004 4.02184,-2.32713 1.87695,-1.60213 2.23155,-1.69257 3.05757,-0.77983 0.5145,0.56851 0.53083,0.73874 0.14076,1.46759 -0.54968,1.02708 -3.19381,3.16009 -5.10357,4.11703 -1.78639,0.89512 -3.75906,1.19274 -4.76092,0.7183 z"
     style="display:inline;fill:#000000"
     id="path1-85"
     inkscape:label="Z"
     sodipodi:insensitive="true"
     transform="matrix(0.26458333,0,0,0.26458333,220.00001,0)" /><path
     d="m 376.23351,87.02554 c -0.12772,-0.06721 -0.25576,-0.271018 -0.35825,-0.570252 -0.0877,-0.256116 -0.29411,-0.73075 -0.45865,-1.05474 -0.29376,-0.578427 -0.29626,-0.591976 -0.13854,-0.749697 0.24874,-0.248737 0.49376,-0.113829 0.7529,0.414542 0.24742,0.504467 0.32681,0.553251 0.43627,0.268062 0.0402,-0.104775 0.18646,-0.43815 0.32498,-0.740833 0.13853,-0.302683 0.28147,-0.645583 0.31764,-0.762 0.0362,-0.116417 0.13664,-0.344453 0.22325,-0.506746 0.0866,-0.162293 0.15903,-0.352793 0.16093,-0.423333 0.002,-0.07054 0.11619,-0.260165 0.254,-0.421389 0.1378,-0.161224 0.25055,-0.323966 0.25055,-0.361648 0,-0.07798 0.41419,-0.730343 0.56531,-0.890384 0.15398,-0.163073 0.27765,-0.12663 0.3669,0.108125 0.0661,0.173823 0.0245,0.336621 -0.22194,0.867833 -0.16681,0.359632 -0.46871,1.092025 -0.6709,1.627542 -0.42542,1.12681 -1.04823,2.628551 -1.25531,3.026833 -0.15571,0.299471 -0.24659,0.32729 -0.54914,0.168085 z"
     style="fill:#000000;stroke-width:0.264583"
     id="path1-64"
     inkscape:label="Checkmark"
     sodipodi:insensitive="true" /><path
     d="m 367.19301,94.003663 c -0.24142,-0.116432 -0.24074,-0.12297 0.0635,-0.602694 0.1397,-0.220284 0.254,-0.43134 0.254,-0.469011 0,-0.03767 0.15578,-0.30049 0.34618,-0.584036 0.2271,-0.338212 0.32887,-0.570082 0.29585,-0.6741 -0.0562,-0.176948 -0.74898,-1.252226 -0.94983,-1.474158 -0.16636,-0.18383 -0.11784,-0.527426 0.0798,-0.565108 0.0842,-0.01603 0.23656,0.06201 0.33867,0.173448 0.10211,0.11144 0.3839,0.420568 0.62619,0.686951 l 0.44053,0.48433 0.33873,-0.531643 c 0.79734,-1.251408 0.95293,-1.375106 1.23074,-0.978471 0.17708,0.252804 0.166,0.507521 -0.0331,0.760592 -0.0907,0.115282 -0.35969,0.527034 -0.5978,0.915006 l -0.43293,0.705403 0.16441,0.222385 c 0.25492,0.344789 0.60786,1.079082 0.60786,1.264631 0,0.4582 -0.58444,0.301821 -0.94362,-0.252484 -0.14863,-0.22937 -0.29239,-0.41697 -0.31947,-0.416888 -0.0271,8.5e-5 -0.15531,0.168045 -0.28494,0.373245 -0.3129,0.495279 -0.81938,1.067353 -0.93866,1.060207 -0.0526,-0.0031 -0.18137,-0.04707 -0.28614,-0.09761 z"
     style="fill:#000000;stroke-width:0.264583"
     id="path1-92"
     inkscape:label="Cross"
     sodipodi:insensitive="true" /><path
     d="m 363.53117,85.26963 c -0.37139,-0.08611 -0.54198,-0.259519 -0.82222,-0.835798 -0.15896,-0.326885 -0.18538,-0.525306 -0.186,-1.397 -8e-4,-1.141788 0.14965,-1.680347 0.65718,-2.352236 0.35471,-0.469577 0.78553,-0.671427 1.53581,-0.719579 1.12538,-0.07222 2.06438,0.401061 2.50351,1.261832 0.41228,0.808133 0.38411,2.098154 -0.0585,2.678422 -0.34377,0.45071 -0.83693,0.648465 -1.43179,0.574144 -0.43855,-0.0548 -0.53667,-0.105659 -0.89885,-0.465937 -0.22361,-0.222433 -0.51708,-0.426529 -0.65215,-0.453546 -0.19798,-0.03959 -0.25611,-0.105124 -0.29978,-0.337921 -0.0306,-0.162874 -0.007,-0.432339 0.055,-0.61799 0.10636,-0.320606 0.11944,-0.329062 0.50172,-0.324365 0.27075,0.0033 0.48545,0.06851 0.69211,0.210116 0.3728,0.255444 0.47784,0.478443 0.43381,0.921017 -0.0329,0.330351 -0.0239,0.34571 0.20258,0.34571 0.1466,0 0.35655,-0.104942 0.55051,-0.275167 0.26368,-0.23141 0.32594,-0.353441 0.39154,-0.767381 0.10443,-0.658932 -0.004,-1.191136 -0.30729,-1.514245 -0.34075,-0.362511 -0.69788,-0.491257 -1.36168,-0.49089 -0.69863,2.65e-4 -1.01936,0.168506 -1.32181,0.692878 -0.4902,0.849889 -0.61472,1.76366 -0.35982,2.640494 0.16628,0.571984 0.41248,0.781092 0.76282,0.647893 0.33683,-0.128061 0.85773,-0.106746 0.97959,0.04008 0.058,0.06985 0.16254,0.127 0.23239,0.127 0.26059,0 -0.0781,0.25191 -0.51191,0.380733 -0.47544,0.141193 -0.78212,0.148754 -1.28682,0.03173 z"
     style="fill:#000000;stroke-width:0.264583"
     id="path1-94"
     inkscape:label="At"
     sodipodi:insensitive="true" /><path
     d="m 252.60493,85.476779 c -0.24611,-0.172381 -0.23821,-0.384341 0.0235,-0.630197 0.11642,-0.109369 0.21386,-0.239835 0.21655,-0.289926 0.003,-0.05009 0.0884,-0.210595 0.1905,-0.356674 0.39937,-0.571447 1.78322,-2.446067 1.83523,-2.486067 0.0303,-0.02328 0.22373,-0.270933 0.4299,-0.550333 0.20617,-0.2794 0.39674,-0.52705 0.42349,-0.550334 0.0268,-0.02328 0.32186,-0.390572 0.65581,-0.8162 0.33395,-0.425624 0.73139,-0.904012 0.88319,-1.06308 0.44692,-0.468315 1.08449,-1.163891 1.73091,-1.888386 0.33239,-0.372534 1.26752,-1.35436 2.07807,-2.181836 l 1.47372,-1.504503 0.22715,0.254936 c 0.27646,0.310282 0.28147,0.396489 0.0367,0.631606 -0.18466,0.177342 -1.91997,2.017458 -3.03956,3.22313 -2.34739,2.527879 -3.94174,4.450347 -5.40594,6.518505 -0.25612,0.36176 -0.50377,0.700699 -0.55033,0.753195 -0.0466,0.0525 -0.23219,0.314267 -0.41248,0.581707 -0.34336,0.509326 -0.48515,0.572434 -0.79635,0.354457 z m 8.80747,-1.621308 c -0.45331,-0.08728 -0.40252,-0.507116 0.13341,-1.102799 0.13537,-0.150466 0.39414,-0.493366 0.57504,-0.762 0.1809,-0.268632 0.35748,-0.501124 0.39241,-0.516647 0.0349,-0.01553 0.0635,-0.06665 0.0635,-0.113609 0,-0.09446 0.13965,-0.283284 0.889,-1.201976 0.2794,-0.342545 0.5842,-0.731263 0.67733,-0.863822 0.29659,-0.422145 1.29219,-1.652553 1.63026,-2.014749 0.4177,-0.447519 1.54989,-1.727168 1.76261,-1.992178 0.0897,-0.111773 0.22851,-0.272402 0.30841,-0.356952 0.0799,-0.08455 0.24229,-0.307385 0.36084,-0.495189 0.11856,-0.187801 0.2913,-0.38876 0.38388,-0.446579 0.0926,-0.05782 0.16833,-0.135933 0.16833,-0.173591 0,-0.08943 1.02944,-1.075047 1.09373,-1.047173 0.43517,0.188666 0.51492,0.268393 0.51465,0.514514 -2.7e-4,0.28692 -0.0932,0.402532 -2.15871,2.688376 -1.31708,1.457544 -1.45923,1.618628 -2.14168,2.427007 -0.26195,0.310279 -0.53253,0.621294 -0.6013,0.691144 -0.26748,0.271688 -1.79423,2.222013 -1.76349,2.25275 0.0179,0.01789 0.29623,-0.100994 0.6185,-0.26421 0.74924,-0.379439 1.3822,-0.428083 1.6439,-0.126333 0.0934,0.107637 0.1745,0.247023 0.18032,0.309747 0.006,0.06273 0.0153,0.160952 0.0212,0.218279 0.006,0.05733 0.0868,0.10796 0.17991,0.112519 0.46963,0.02297 0.56523,0.05517 0.82256,0.276963 0.58506,0.504291 0.47166,0.573935 2.53336,-1.55585 1.13946,-1.177084 3.45115,-3.424716 3.52524,-3.42755 0.0338,-0.0013 0.16666,-0.10962 0.29518,-0.240723 0.36787,-0.375277 1.07866,-0.549172 1.07866,-0.263896 0,0.112443 -0.60614,0.766271 -2.5875,2.791053 -0.98075,1.002239 -2.0666,2.123646 -2.413,2.492018 -0.82988,0.882496 -1.21603,1.237821 -1.59185,1.464759 -0.26638,0.160854 -0.33953,0.172466 -0.5199,0.08254 -0.11546,-0.05756 -0.22348,-0.179896 -0.24006,-0.27186 -0.0385,-0.21354 -0.43063,-0.632872 -0.5918,-0.632872 -0.1399,0 -0.94589,0.591981 -0.94589,0.694732 0,0.138377 -0.48748,0.06094 -0.63374,-0.100677 -0.14648,-0.161856 -0.14542,-0.18375 0.0292,-0.603956 0.33412,-0.803992 0.25182,-0.834723 -0.71041,-0.265266 -0.75802,0.448604 -0.95049,0.578501 -1.99679,1.347647 -0.40117,0.294902 -0.74407,0.530998 -0.762,0.524656 -0.0179,-0.0063 -0.11841,-0.02805 -0.22329,-0.04825 z m -4.09959,-0.420656 c -0.0779,-0.02061 -0.18266,-0.155218 -0.23283,-0.299146 -0.11588,-0.332404 -0.12616,-0.294293 0.12359,-0.457935 0.2052,-0.134454 0.22415,-0.131985 0.42333,0.05514 0.23826,0.22383 0.28091,0.628478 0.0746,0.707649 -0.14128,0.05421 -0.16338,0.05389 -0.38869,-0.0057 z m 11.80445,-5.021053 c -0.25397,-0.108061 -0.27707,-0.594514 -0.0282,-0.594514 0.0893,0 0.17498,-0.03724 0.1905,-0.08275 0.0155,-0.04551 0.14253,-0.105278 0.28223,-0.132813 0.41642,-0.08208 0.77827,0.366869 0.56561,0.701744 -0.0879,0.138469 -0.7679,0.211394 -1.01011,0.108331 z"
     style="fill:#000000;stroke-width:0.264583"
     id="path1-046"
     inkscape:label="Signature"
     sodipodi:insensitive="true" /><path
     d="m 305.27091,112.69133 c -0.15372,-0.17374 -0.24887,-1.0989 -0.25414,-2.47103 -0.002,-0.57882 -0.0395,-0.96571 -0.0977,-1.014 -0.0577,-0.0479 -0.34205,-0.0424 -0.73526,0.0143 -0.35265,0.0508 -0.70584,0.0675 -0.78488,0.0372 -0.20971,-0.0805 -0.26737,-0.30643 -0.11666,-0.45714 0.14286,-0.14287 0.84851,-0.39577 1.35263,-0.48479 0.25062,-0.0442 0.319,-0.0954 0.3246,-0.24273 0.0509,-1.33643 -0.008,-4.14838 -0.0923,-4.43059 -0.18649,-0.62246 0.20059,-0.94001 0.62658,-0.51402 0.2824,0.28241 0.38991,1.17507 0.38991,3.23741 0,1.59377 0.0118,1.7321 0.14817,1.73091 0.36514,-0.003 0.37451,-0.0557 0.3517,-1.97089 -0.0167,-1.39979 0.004,-1.85774 0.0882,-1.95929 0.15972,-0.19246 0.28064,-0.16489 0.56024,0.12772 l 0.24867,0.26024 -0.019,1.74002 c -0.0177,1.62033 -0.007,1.75463 0.14817,1.95251 0.21557,0.27405 0.21461,0.53176 -0.002,0.58845 -0.19798,0.0518 -0.19867,0.0747 -0.0523,1.71787 0.056,0.62865 0.0863,1.20967 0.0672,1.29117 -0.0538,0.22987 -0.5698,0.19989 -0.72849,-0.0423 -0.0984,-0.15019 -0.29062,-1.8771 -0.3016,-2.70933 -5.3e-4,-0.0349 -0.12047,-0.0635 -0.26669,-0.0635 h -0.26586 l 0.0614,1.905 0.0614,1.905 h -0.29041 c -0.17021,0 -0.34469,-0.0613 -0.42152,-0.14817 z m -4.72115,-0.88268 c -0.39119,-0.11121 -0.57427,-0.28603 -0.67263,-0.64227 -0.0869,-0.31473 -0.0994,-0.28412 0.48422,-1.19037 0.65568,-1.01824 2.08492,-2.30118 2.5636,-2.30118 0.24818,0 0.50348,0.25712 0.50348,0.50706 0,0.0719 -0.20002,0.25266 -0.4445,0.40171 -0.58252,0.35515 -1.21142,0.95298 -1.74727,1.66093 -0.51688,0.68289 -0.55386,0.86233 -0.16154,0.78386 0.35451,-0.0709 1.3732,-0.53309 1.80298,-0.81802 0.3921,-0.25996 0.78051,-0.35291 0.99501,-0.23812 0.1185,0.0634 0.13153,0.11513 0.0618,0.24536 -0.19265,0.35997 -1.58347,1.23633 -2.41751,1.52329 -0.54013,0.18583 -0.54991,0.18651 -0.96767,0.0678 z m 14.478,-0.47068 c -0.35065,-0.13479 -0.66546,-0.46502 -0.65902,-0.6913 0.007,-0.25908 0.15537,-0.30868 0.4684,-0.15696 0.48593,0.23552 0.23813,-0.21289 -0.31738,-0.57431 -0.44427,-0.28905 -0.84666,-0.6897 -0.84666,-0.843 0,-0.78791 1.53207,-1.60215 1.96234,-1.04292 0.28771,0.37394 0.1563,0.5466 -0.52856,0.6945 -0.20662,0.0446 -0.65294,0.36448 -0.57952,0.41531 0.90378,0.62578 1.68574,1.44404 1.68574,1.76401 0,0.19648 -0.0562,0.26409 -0.30668,0.36873 -0.31051,0.12974 -0.647,0.155 -0.87866,0.0659 z m -4.61433,-0.23851 c -0.30261,-0.15526 -0.62542,-0.48426 -0.85013,-0.86641 l -0.16353,-0.27812 -0.0858,0.44745 c -0.0806,0.41991 -0.10245,0.44906 -0.35579,0.4736 -0.44405,0.043 -0.55939,-0.22768 -0.48664,-1.14204 0.0327,-0.41072 0.0668,-1.14048 0.0758,-1.62167 0.0122,-0.65139 0.0472,-0.89422 0.13693,-0.95057 0.16186,-0.10158 0.43293,-0.0157 0.5754,0.18234 0.0639,0.0888 0.19389,0.16146 0.2889,0.16146 0.29179,0 0.87641,0.39842 0.99118,0.67549 0.12892,0.31124 0.0716,0.73333 -0.16623,1.22467 -0.1037,0.21422 -0.15207,0.42768 -0.11833,0.52224 0.0965,0.27048 0.30224,0.45627 0.50527,0.45627 0.10654,0 0.32923,0.08 0.49488,0.17769 0.4971,0.2933 0.35931,0.66937 -0.24493,0.66845 -0.18859,-2.6e-4 -0.4572,-0.0592 -0.5969,-0.13085 z m -0.76821,-2.12253 c 0.11983,-0.26174 0.21788,-0.50939 0.21788,-0.55033 0,-0.1456 -0.2496,-0.0715 -0.34224,0.10157 -0.0944,0.1764 -0.20002,0.92466 -0.13051,0.92466 0.0204,0 0.13504,-0.21415 0.25487,-0.4759 z m 2.9087,1.9364 c -0.19434,-0.2225 -0.29185,-0.61583 -0.49361,-1.99118 -0.14625,-0.99693 -0.16232,-1.27578 -0.0793,-1.37583 0.14613,-0.17608 0.29509,-0.15662 0.54024,0.0706 0.17321,0.16052 0.23582,0.34848 0.3455,1.03716 0.0737,0.46262 0.17395,1.03162 0.22283,1.26445 0.19572,0.93222 0.1937,1.0297 -0.0226,1.08761 -0.30185,0.0808 -0.37266,0.068 -0.5131,-0.0928 z m -1.39086,-5.47917 c -0.0974,-0.0682 -0.19463,-0.10644 -0.21611,-0.085 -0.0908,0.0908 -0.0109,-0.54466 0.0827,-0.65742 0.12569,-0.15145 0.52077,-0.17239 0.70344,-0.0373 0.23979,0.17734 0.33864,0.4501 0.24877,0.68648 -0.0656,0.17264 -0.13994,0.21721 -0.36217,0.21721 -0.15377,0 -0.35926,-0.0558 -0.45664,-0.12401 z"
     style="fill:#000000;stroke-width:0.264583"
     id="path1-69"
     inkscape:label="Chris"
     sodipodi:insensitive="true" /><path
     d="m 282.17081,118.02574 c -0.079,-0.0501 -0.10587,-0.24338 -0.091,-0.65376 l 0.0211,-0.58267 -0.93643,0.0277 c -1.00122,0.0297 -1.09695,-0.006 -1.00554,-0.36974 0.0388,-0.15476 0.12644,-0.21582 0.3678,-0.25638 0.17425,-0.0293 0.59144,-0.10714 0.92708,-0.17304 0.33565,-0.0659 0.63643,-0.11981 0.66841,-0.11981 0.0524,0 -0.0144,-1.09289 -0.0701,-1.14756 -0.0128,-0.0125 -0.23278,0.0161 -0.48889,0.0636 -0.45761,0.0849 -1.51553,0.0505 -1.79153,-0.0582 -0.15817,-0.0623 -0.26549,-0.38739 -0.19152,-0.58015 0.0746,-0.19429 0.28496,-0.23964 0.61161,-0.13184 0.36285,0.11975 1.19161,0.0451 1.54851,-0.13944 0.45617,-0.2359 0.67811,-0.14192 0.94606,0.40061 0.1854,0.37539 0.25417,0.67103 0.31262,1.34392 0.0412,0.47446 0.0593,0.90559 0.0402,0.95807 -0.0191,0.0525 -0.0707,0.35518 -0.11478,0.67269 -0.044,0.31751 -0.12533,0.63183 -0.18066,0.6985 -0.11114,0.13392 -0.39906,0.15781 -0.57298,0.0475 z m 3.21647,-0.23083 c -0.2841,-0.19899 -0.21149,-0.47719 0.15531,-0.59504 0.48372,-0.15543 0.42857,-0.61369 -0.16687,-1.38645 -0.32403,-0.42054 -0.34757,-0.53655 -0.16505,-0.8134 0.17496,-0.2654 0.2142,-0.54127 0.077,-0.54127 -0.0471,0 -0.25369,0.079 -0.45914,0.17559 -0.20545,0.0966 -0.47741,0.16324 -0.60437,0.14816 -0.29085,-0.0345 -0.45123,-0.26541 -0.32785,-0.47192 0.13746,-0.23009 0.99182,-0.62259 1.45511,-0.66849 0.39527,-0.0392 0.43199,-0.025 0.68541,0.26358 0.31715,0.36122 0.3371,0.61764 0.0936,1.20349 l -0.17412,0.41899 0.29836,0.44337 c 0.51653,0.76757 0.60484,1.38052 0.25001,1.73535 -0.26349,0.26349 -0.80592,0.30622 -1.11743,0.088 z"
     style="fill:#000000;stroke-width:0.264583"
     id="path1-299"
     inkscape:label="73"
     sodipodi:insensitive="true" /></svg>
